<svg viewBox="0 0 110 110" xmlns="http://www.w3.org/2000/svg" fill-rule="evenodd" clip-rule="evenodd" stroke-linejoin="round" stroke-miterlimit="2"><g fill="#0fa98a" fill-rule="nonzero"><path d="M93.618 64.784c-1.557 7.028-3.002 12.447-4.013 13.945-.108.16-.238.342-.388.541-.127.172-.276.363-.433.562-.022.029-.04.054-.065.083-.125.159-.27.336-.415.511-.078.096-.15.187-.235.288l-.192.229c-2.938 3.506-8.57 9.498-14.646 15.315-8.918 8.538-15.352 13.434-17.65 13.434-2.3 0-8.734-4.896-17.653-13.434-6.464-6.188-12.424-12.574-15.172-15.953l-.295-.364-.155-.199c-.126-.161-.251-.321-.356-.463a15.516 15.516 0 01-.395-.55c-.377-.558-.815-1.678-1.296-3.207-.078.129-.156.257-.239.385.459 1.419.88 2.467 1.248 3.011 3.56 5.274 28.689 31.115 34.312 31.115 5.233 0 27.348-22.369 33.263-29.726.036-.045.08-.097.115-.142.106-.132.194-.249.289-.371.08-.105.17-.218.242-.314.153-.204.288-.393.403-.562 1.043-1.546 2.512-7.034 4.088-14.13-.12-.001-.241 0-.362-.004M103.466 19.323c-5.648-.84-11.216-2.25-16.44-3.914-.011.116-.026.228-.036.347 5.167 1.642 10.67 3.037 16.251 3.878a1465.15 1465.15 0 01-3.96 22.635l.284.423a1430.557 1430.557 0 004.046-23.173l.027-.17-.172-.026z"/><path d="M101.163 20.874l-.863-.128c-4.577-.681-9.095-1.77-13.395-3.066-.007.586.001 1.183.022 1.787 3.947 1.17 8.072 2.163 12.254 2.831a1241.93 1241.93 0 01-2.757 15.896c.475.647.943 1.301 1.402 1.956 1.755-9.7 3.063-17.609 3.197-18.425l.14-.851zM78.551 11.396l.265-.263C65.472 6.042 55.818.147 55.672.057L55.58 0l-.09.057c-.107.066-7.466 4.149-15.705 7.953.295.002.593.011.899.04C48.14 4.562 54.874.828 55.58.401c1.02.617 10.327 6.155 22.971 10.995"/><path d="M55.665 4.549c1.925 1.139 9.747 5.617 20.155 9.686.418-.454.837-.903 1.255-1.338-12.1-4.663-20.82-9.984-20.953-10.067l-.457-.281-.456.281c-.087.054-5.246 2.973-11.632 6.049a6.688 6.688 0 011.63 1.179c5.063-2.473 9.319-4.834 10.458-5.509M29.743 12.794l-.157-.305-.88.283c-5.046 1.579-14.722 4.041-20.149 4.847l-.173.026.029.17 3.958 19.762c.06-.225.127-.456.198-.691L8.781 17.93c5.384-.811 15.7-3.245 20.962-5.136"/><path d="M24.32 18.024c1.326-.438 7.327-2.453 8.222-3.292l-1.737-.686s-3.965 1.506-6.474 2.216c-4.011 1.17-8.201 2.15-12.44 2.78l-.862.128.14.851c.09.544 1.35 8.045 2.408 14.146.385-.867.84-1.755 1.39-2.647l-1.955-10.926c3.756-.6 7.462-1.467 11.038-2.485v.004l.062-.02c.069-.02.14-.037.208-.057v-.012z"/><path d="M26.077 77.932c-.047-.055-.09-.108-.134-.162m53.263 6.825c-4.463-4.79-9.368-12.915-8.838-20.106a14.603 14.603 0 01.127-1.05c.013-.09.025-.181.04-.27.479-2.781 1.654-5.211 4.303-7.358-4.277-6.141.034-14.048.034-14.048l-.21 3.679c-.309 5.409 1.97 9.197 4.143 11.547 2.36 1.9 6.682 4.914 11.564 6.055.558.13 1.123.235 1.694.312.607.082 1.219.129 1.836.139.119.002.24.005.36.004.347-.003.695-.014 1.043-.043l.357-.029a.643.643 0 01.672.448l.106.34c.013.041 1.277 3.945 4.332 4.845 2.137.629 4.76-.312 7.79-2.797.838-.687 1.375-2.144 1.435-3.896.08-2.32-.677-5.593-3.043-7.818l-3.281-3.164a.643.643 0 01-.115-.146c-.046-.083-2.217-3.88-5.193-8.421l-.282-.431c-.465-.704-.95-1.423-1.445-2.148a125.1 125.1 0 00-1.394-1.993c-2.99-4.186-6.279-8.198-8.95-9.953l-.16-.105a.64.64 0 01-.279-.425l-.032-.187c-.012-.065-.938-5.319-1.06-10.222a39.01 39.01 0 01-.006-1.786c.005-.24-.035-.641-.024-.874 0 0-1.04.26-5.214 6.406-2.286 3.365.52-8.697.52-8.697.033-.142.064-.284.098-.425l.08-.335c.044-.152-.047-.017-.07-.026l-.27.265a88.85 88.85 0 00-2.761 2.835c-2.745 2.947-5.328 6.139-6.113 8.14l-.524 1.354s-.193.495-.288.535c-.095.039-.301-.038-.48-.047-.09-.007-7.028-.386-15.28 2.139a100.82 100.82 0 00-2.325-3.929c-.093-.122-2.295-2.992-5.62-3.288a6.14 6.14 0 00-1.902.132l1.121-3.885c.016-.256.015-.493.014-.73l-.009.029.01-.029c0-.054.004-.114.003-.168-.002-.094-.01-.18-.014-.271a9.7 9.7 0 00-.04-.539c-.01-.099-.026-.193-.04-.287a7.505 7.505 0 00-.079-.441c-.004-.022-.01-.042-.015-.064a6.24 6.24 0 00-.162-.589c-.027-.079-.054-.159-.082-.234-.048-.124-.1-.24-.153-.354-.03-.063-.058-.129-.089-.189a4.845 4.845 0 00-.213-.363c-.023-.036-.044-.076-.068-.111-.036-.053-.076-.099-.115-.149l.003-.001c-.067-.088-.132-.178-.202-.258l-.06-.065-.031-.032a4.638 4.638 0 00-.25-.255c-.045-.041-.09-.077-.134-.115a6.141 6.141 0 00-.227-.185c-.05-.037-.099-.071-.148-.105a4.865 4.865 0 00-.226-.148c-.049-.03-.099-.061-.148-.088a5.257 5.257 0 00-.233-.124c-.047-.023-.093-.048-.14-.07a7.36 7.36 0 00-.25-.109c-.037-.015-.076-.033-.113-.047a7.08 7.08 0 00-.347-.125l-.019-.006a9.473 9.473 0 00-.311-.093c-.078-.022-.151-.04-.224-.059l-.105-.027-.28-.065s-.168-.044-.54-.055c-.372-.011-.947.011-1.76.142-.408.066-.874.159-1.405.289-.265.065-.548.14-.845.224-1.49.423-3.394 1.107-5.78 2.201l.623.084 1.85.248 1.048.141-.377.631c-.138.189-.241.42-.328.667.324.132.787.307 1.44.5.866.255 2.068.539 3.756.79 0 0 .645.084 1.057.58.328.395.476 1.406.096 2.141 0 0-2.978 2.595-4.422-.796l-.6-.924-.004.001c-.016.034-.654 1.358-1.455 1.867.064.465.139.924.222 1.358.324 1.686.505 2.204.505 2.204s.895.672 1.886.922l.006.011c-.012-.007-.012-.011-.005-.011l.038.011.015-.002c.291.065 1.639.456 2.905.23-.492.365-1.092.83-1.857 1.452-1.56 1.269-2.585 2.566-3.49 3.711-1.092 1.382-2.035 2.575-3.573 3.351-2.966 1.143-7.206 2.747-9.326 3.484.03-.842.313-2.951 2.104-6.176l.123-.221-1.196-1.848-.374.302c-.252.201-6.155 5.028-7.932 13.011l-.014.06.004.061c.024.346.761 1.974 2.565 5.371a98.072 98.072 0 00-1.82-.613c-2.946-.957-8.864 3.021-8.864 3.021l.115.652c3.672-1.29 3.996-1.702 7.934-1.002a29.88 29.88 0 014.372 1.154l.387.705-2.758 4.681c.042.034-1.355-1.144-1.85-1.4-.068-.036-.137-.07-.206-.105-.094-.048-.19-.092-.286-.137l-.003-.005-.013-.003c-.05-.023-.099-.049-.148-.071a10.057 10.057 0 00-.685-.273c-.078-.028-.156-.056-.233-.082a9.067 9.067 0 00-.529-.153c-.052-.012-.101-.029-.153-.041a8.5 8.5 0 00-.687-.133c-.06-.009-.12-.014-.182-.021a8.083 8.083 0 00-.518-.051c-.082-.005-.164-.007-.246-.01a8.102 8.102 0 00-.493-.001c-.065.002-.132.003-.2.007-.229.014-.459.033-.69.067-.711.104-1.39.301-2.032.581a8.778 8.778 0 00-2.621 1.791 11.21 11.21 0 00-2.012 2.708c-.236.439-.442.906-.634 1.385-.109.273-.218.544-.312.828C.28 60.461 0 62.198 0 64.024a18.37 18.37 0 00.474 4.144c.033.149.078.292.115.439.074.289.147.578.234.859.052.17.114.333.171.5.084.249.168.499.263.74.067.173.143.339.215.507.097.226.194.452.299.671.08.168.168.331.254.494.108.208.217.415.333.615.094.16.191.316.288.472.12.19.241.38.368.563.104.151.21.297.319.442a14.566 14.566 0 00.745.921 14.652 14.652 0 00.744.777l.053.054c.152.144.307.282.464.416.127.109.253.219.384.322.162.128.328.247.494.365.131.093.26.187.395.274.174.112.352.212.529.312.133.075.263.154.397.222.19.096.385.178.579.261.126.054.251.115.379.163.221.083.446.148.67.213.105.03.208.07.314.096a8.25 8.25 0 001.004.188c.042.005.086.003.128.008.3.032.6.052.904.05l.09-.003a7.894 7.894 0 001.002-.078c2.132-.312 3.98-1.464 5.396-3.183.178-.215.348-.438.51-.671.49-.695.918-1.466 1.273-2.297.404-.945.705-1.975.913-3.054.038-.194.071-.388.104-.584-.018-.068.076-.452.06-.521.165-5.004-2.175-9.341-2.175-9.341l.92-1.917.191-.399-.191.399.343-.678 1.278-2.161 1.957 3.59c-.026.743-.042 3.561.908 6.76.1.335.224.646.339.968-1.238 3.244-2.3 6.964-2.256 8.511l-.008.002c-.11 1.211 1.046 2.584 1.046 2.584.428.634 1.356 1.765 2.636 3.22-.002-.002-.002-.021-.002-.033 6.943 7.788 24.27 24.867 29.349 25.96.169.036.325.056.466.056 3.47 0 14.56-10.08 22.9-18.57.62-.636 1.227-1.263 1.81-1.875 3.862-4.044 6.855-7.451 7.737-8.758.952-1.41 2.263-6.189 3.67-12.416-.57-.08-1.133-.188-1.69-.318-1.356 6.04-2.578 10.548-3.415 11.788-.1.15-.223.321-.364.508l-.21.272c-.09.116-.176.229-.277.356l-.13.16c-1.224 1.519-3.214 3.756-5.65 6.335a.623.623 0 01-.203.226l-.02.01-.617.65M19.434 67.857c-.266 3.545-2.287 6.598-5.159 7.778-1.453.598-3.124.705-4.899.156-.192-.059-.382-.109-.578-.184-2.872-1.111-4.578-3.619-5.518-6.595-1.427-4.52-.911-8.703 2.26-12.254 2.022-2.265 5.289-3.055 7.616-2.014-1.073.084-2.29-.005-3.402.303-2.415.667-3.988 2.462-4.854 4.836-1.537 4.206-.638 7.961 2.125 11.543 2.074 2.69 4.88 3.602 7.32 2.828a6.01 6.01 0 002.055-1.143v-.001c.835-.701 1.565-1.651 2.117-2.869.344-.761.604-1.565.917-2.384m-.03-13.825l-1.29 2.392-.234.433-1.636 3.033c1.971 2.838 2.312 6.84.734 9.893-.17.328-.388.631-.582.945.685-2.541.917-5.035.139-7.586-.264-.862-.538-1.589-.85-2.216l-2.549 4.726-1.194-1.626 2.575-4.78c-.979-.987-1.99-1.486-4.044-1.938 1.905-.309 3.165.001 4.482 1.125l2.367-4.392.235-.436.325-.604c-.017-.089-.035-.18-.055-.272l-.103-.512.104.512.055.271.97-1.801-.166-.865-.083-.434.249 1.299.258-.384c.287.516.586 1.05.9 1.609l.135.24-.743 1.368zM35.536 11.71c-.405.131 6.032-3.481 8.444 1.512.693 1.435.893 2.763.123 4.103.082-2.117.062-4.169-2.6-4.98l1.232 1.829c-2.295-1.466-3.851-1.225-7.199-2.464M21.1 36.13c2.716-.927 8.776-3.26 9.639-3.595 1.852-.931 2.927-2.29 4.065-3.73.906-1.146 1.843-2.331 3.292-3.51.47-.382.868-.696 1.214-.964-.002.009-.008.027-.007.028l.02-.014c.066 1.207.2 3.178.42 4.355l1.116-2.741c.43-1.018 1.038-1.97 1.672-2.913.695-.905 1.01-1.378 1.127-1.618.893-.43 1.796-.616 2.701-.535 2.734.239 4.672 2.735 4.675 2.735.021.033.608.972 1.445 2.408l.75 1.311.934-.426c-.304.095-.604.184-.91.287l-.08.039c2.272 4.011 5.525 10.316 5.41 13.357-.075 1.949-5.76 7.798-9.324 11.027l-.472.429.43.47c.796.869 2.285 5.124 2.657 7.244l.12.705c.317 1.9.644 3.865 2.059 5.608.27.331.39.614.36.841-.051.397-.572.78-1.03 1.118-.254.187-.494.363-.684.559-.349.362-.715.866-1.102 1.4l-.156.212c-.31.425-.626.845-.94 1.199a6.322 6.322 0 01-.279.299c-.371.364-1.328 1.22-2.314 1.174-.494-.017-.94-.256-1.363-.732-.357-.402-.531-.736-.503-.966.043-.343.592-.721 1.124-1.087.288-.199.583-.402.848-.624 1.045-.87 1.184-1.039 1.265-2.008.019-.219.043-.503.103-.897.035-.228.06-.436.082-.635l.02-.195c.186-2.043-.33-2.46-.493-2.587-.317-.306-4.756-5.714-6.366-10.119.01-.189.009-.435-.007-.754-.17-3.565 4.656-8.554 4.656-8.554-1.648 1.006-3.721 2.103-5.956 5.881-.693-1.447-1.347-2.069-2.291-2.978l-.675-.496 5.015-4.804 1.304-1.268.947-1.101-1.823-2.687 4.039-.443c.598-.073 1.959-.125 2.556-.337 2.05-.731 1.758-2.053 1.61-3.625-.042-.442-.487-1.882-.487-1.882s1.097 4.139-1.516 4.511c-1.337.19-6.24.828-8.148 1.043-.056.005-.117.013-.166.018l-2.03.272-1.448-1.072s-.87.24-.543.917c.327.677.532 1.122.532 1.122s-.06.039-.164.1c-.598.343-2.682 1.383-3.928-.052-1.465-1.689-.84-1.997 1.048-3.373 1.972-1.435 4.907.389 4.907.389l.48-.882c7.577-2.036 6.87-2.738 6.87-2.738-.672-4.976.09-6.358-.128-6.052-1.925 3.158-.298 5.11-1.24 5.926-.95.825-6.132 2.033-6.132 2.033l-.263.478c-1.858-1.439-3.998-1.437-7.54 1.234 0 0-.71.694-.384 2.342-1.818.661-5.767 1.943-9.302 2.06l-.932-.552-.386-1.585zm16.148 9.129c-1.406-1.092-1.947-1.208-2.063-1.257l-2.047-.756-5.22-2.238 5.02-2.791c.444.372.834.554.834.554s2.823.856 4.928-.827l1.211-1.033 1.133-.205.513-.092.676-.075 1.32 2.351-.066.079c-1.095 1.332-5.123 5.014-6.239 6.29m30.124 38.075c-.29 2.148-.947 4.115-2.123 5.608-2.507 3.955-7.188 3.318-10.005.718-2.405-2.22-3.562-5.296-3.858-8.64-.103-1.162-.377-2.692-.99-3.4a1 1 0 00-.209-.21l-.171-.146-.076-.061.002-.002c-2.708-2.261-4.06-2.123-6.052-1.913-1.962.208-4.653.491-10.53-1.634-.304-.11-.599-.23-.883-.358-.095-.042-.183-.091-.276-.135-.185-.089-.371-.176-.548-.272-.107-.057-.205-.12-.307-.179-.156-.09-.312-.179-.46-.274-.103-.066-.201-.137-.301-.206-.138-.095-.277-.188-.408-.287-.098-.074-.193-.152-.288-.228-.124-.1-.249-.199-.368-.303a8.897 8.897 0 01-.268-.245c-.115-.105-.228-.21-.337-.319-.085-.085-.166-.172-.248-.258a11.942 11.942 0 01-1.275-1.593 12.078 12.078 0 01-.42-.659c-.055-.092-.11-.184-.161-.275a14.127 14.127 0 01-.219-.401l-.139-.266c-.07-.14-.136-.28-.202-.42-.039-.085-.079-.169-.116-.253a21.19 21.19 0 01-.19-.448c-.031-.075-.064-.15-.093-.226a15.758 15.758 0 01-.181-.486c-.022-.062-.047-.125-.068-.187a17.53 17.53 0 01-.176-.539l-.042-.129a17.038 17.038 0 01-.182-.639c-.856-3.202-.722-5.909-.718-5.966l.01-.181-3.18-5.833 2.484-1.738c1.78.249 3.754.921 5.433 2.462l.81.741a.62.62 0 01.026.024c3.261 2.975 4.125 3.658 4.245 3.749l.017.014 1.183-3.217-2.365-4.946s3.096-1.074 3.984.301c.315.488.562.902.762 1.254.524.924.691 1.386.691 1.386l2.625.758c1.506 4.738 6.519 10.916 6.903 11.214.077.118.223.758-.01 2.293-.067.431-.093.742-.113.981-.043.498-.043.498-.81 1.138-.237.197-.498.377-.754.552-.765.527-1.557 1.071-1.67 1.981-.075.619.19 1.261.816 1.964.663.745 1.433 1.137 2.29 1.166l.1.002c1.383 0 2.575-.963 3.17-1.546.15-.147.296-.308.44-.476v4.075l.013-.013c2.565 1.343 5.136 2.672 7.692 4.041.897.482 2.305 1.075 2.373 1.168l-.184.664-4.553-2.126c-.382 2.67 1.418 3.299 2.945 4.188-1.808 1.268-3.9.5-4.54-1.606-.24-.795-.329-1.649-.562-2.448-.09-.31-.387-.542-.705-.713-.052 2.555.398 4.878 1.586 6.969.998 1.758 2.448 2.766 4.249 3.093 1.506.273 3.1-.393 4.258-1.688.3-.407.58-.852.825-1.362.35-.728.605-1.459.814-2.191l.261-1.061c.543-2.785.12-5.583-1.187-8.324-1.027-2.15-2.567-3.641-4.663-3.927-.967-.132-1.97.131-2.874.208 1.806-1.34 4.63-1.062 6.603.815 3.096 2.942 4.06 6.88 3.448 11.426m-4.076-4.16c-.904-3.8-2.035-5.125-5.413-6.073 1.935-.312 3.478.302 4.68 1.923 2.154 2.905 2.555 7.476.95 10.827-.157.325-.355.625-.533.936.663-2.536.928-5.035.316-7.613M54.423 64.32c-.016-.03-.035-.059-.05-.089-.629-4.178-1.505-6.882-2.8-10.925l4.333.607s4.796-1.349 9.939-.025c0 0-5.141-.759-8.389 1.703.225.265.233.377.677.852 4.184-2.196 7.743-2.463 13.145-.776-7.391 1.252-12.166 2.912-16.855 8.653"/></g></svg>